<svg width="77" height="54" viewBox="0 0 77 54" fill="none" xmlns="http://www.w3.org/2000/svg">
<path d="M57.4734 33.5444C57.0858 32.6844 57.1884 31.7183 57.3138 30.9525C57.3252 30.8583 57.348 30.7522 57.3594 30.6815C57.3708 30.5991 57.3936 30.5048 57.4278 30.4223C57.4734 30.2456 57.5418 30.0689 57.6216 29.8922C57.7698 29.5387 57.9864 29.1617 58.2486 28.7847C58.7617 28.0425 59.4685 27.3002 60.2324 26.5816C61.7715 25.1324 63.5614 23.7187 65.4539 22.3756C78.029 13.4805 75.4638 6.65905 75.2358 5.86969C75.0078 5.09211 71.7243 -5.62906 50.7584 3.97287C50.0629 4.29097 49.4017 4.67976 48.7404 5.04498L48.6378 7.3895C49.6525 7.00071 50.6671 6.62371 51.6818 6.27026C52.7535 5.90504 53.8594 5.64584 54.9082 5.24527C60.8936 3.00678 67.0272 2.91253 69.41 5.61049C71.6217 8.11995 70.6299 13.1624 62.5581 18.2874C61.5777 18.9118 60.6998 19.7012 59.7536 20.4552C58.8073 21.2092 57.8724 21.9986 56.9376 22.8822C56.0141 23.7776 55.1134 24.7672 54.3154 25.9689C53.9164 26.5698 53.5515 27.2296 53.2551 27.9718C53.1069 28.337 52.9815 28.7258 52.8789 29.1264C52.8219 29.3267 52.7763 29.527 52.7421 29.739C52.6965 29.9511 52.6737 30.1396 52.6509 30.3399C52.4799 31.9304 52.6965 33.4384 53.0841 34.7933C53.4717 36.1599 54.0418 37.397 54.6916 38.5398C55.0222 39.1053 55.3643 39.659 55.7291 40.1892C56.0939 40.7194 56.4701 41.2378 56.8692 41.7326C57.6672 42.7222 58.5109 43.6412 59.3887 44.5012C59.8333 44.9371 60.278 45.3495 60.7454 45.7619C61.2128 46.1624 61.6803 46.563 62.1591 46.94C63.1168 47.694 64.0972 48.4245 65.1119 49.0725C66.1266 49.7322 67.164 50.3449 68.2243 50.9104C69.2846 51.4641 70.3676 51.9825 71.4621 52.442C72.4084 52.8308 74.6999 53.5966 75.5664 53.8675C75.7602 53.9264 75.9654 53.9264 76.1592 53.8793C76.6039 53.7615 76.6153 53.1135 76.182 52.9721C72.6364 51.8411 64.1428 48.236 57.4734 33.5444Z" fill="#253D62"/>
<path d="M13.5235 53.9147C13.934 53.9147 14.1164 53.3963 13.8086 53.1135C7.0023 46.9989 5.01857 41.8622 4.51694 39.6001C4.20912 38.1746 4.0039 36.7254 3.9355 35.2645C3.9013 34.5341 3.87849 33.8036 3.88989 33.0732C3.88989 32.708 3.9013 32.3427 3.9127 31.9775C3.9355 31.6005 3.9469 31.2235 3.9697 30.8465C4.06091 29.3384 4.17492 27.854 4.35733 26.3813C4.53974 24.9204 4.80196 23.483 5.15538 22.1282C5.50881 20.7851 5.99904 19.5127 6.63748 18.5937C6.9567 18.1342 7.29872 17.7808 7.64075 17.5334C7.99417 17.286 8.35899 17.1446 8.79222 17.0739C9.64728 16.9325 10.8102 17.1446 11.9958 17.5805C12.2923 17.6865 12.5887 17.8044 12.8965 17.9457C13.0447 18.0164 13.2043 18.0871 13.3525 18.1578L13.8314 18.3934L15.8835 19.3713C17.263 20.0311 18.6881 20.6555 20.1816 21.2092C21.6751 21.7629 23.237 22.2695 24.9585 22.5523C25.8249 22.6937 26.7256 22.7644 27.6719 22.729C28.6181 22.6937 29.61 22.5405 30.5791 22.1989C31.5595 21.869 32.5058 21.3388 33.3152 20.679C34.1361 20.0193 34.8201 19.2417 35.3674 18.4288C35.4358 18.3227 35.5042 18.2285 35.5726 18.1225C35.641 18.0164 35.7094 17.9104 35.755 17.8279L36.0742 17.2977C36.2794 16.9443 36.4733 16.5791 36.6671 16.2256C37.0547 15.507 37.4081 14.8001 37.7615 14.0932C38.457 12.6794 39.0954 11.2892 39.7453 9.98144C40.3837 8.68547 41.0564 7.47197 41.786 6.60014C42.1508 6.16423 42.5156 5.82256 42.8691 5.59872C43.2225 5.36309 43.5759 5.23349 43.9864 5.1628C44.089 5.15102 44.203 5.13924 44.3056 5.12746H44.3854C44.3968 5.12746 44.4196 5.12746 44.4196 5.12746C44.431 5.12746 44.431 5.12746 44.4538 5.12746C44.4994 5.12746 44.602 5.13924 44.7388 5.20993C45.0124 5.32774 45.3886 5.63406 45.7421 6.03463C45.9131 6.23492 46.0955 6.47055 46.2551 6.70618C46.4147 6.95359 46.5857 7.21278 46.7339 7.49554C47.0417 8.04927 47.3268 8.65013 47.5776 9.27455C48.0792 10.5352 48.4554 11.9018 48.7633 13.3038C49.0711 14.7058 49.2877 16.1549 49.4473 17.6276C49.5955 19.1003 49.7095 20.5848 49.7551 22.0693C49.8121 23.5655 49.8007 25.0735 49.7779 26.5816C49.7551 28.0896 49.6753 29.5976 49.5841 31.1175C49.4929 32.6373 49.3561 34.1453 49.2079 35.6651C48.3756 42.1096 47.076 48.6366 46.0271 53.4905C45.9815 53.7026 46.1411 53.9029 46.3463 53.9029C46.6883 53.9029 46.9962 53.679 47.1102 53.3374C48.6493 48.6954 50.4506 42.5809 51.7389 36.0892C52.0581 34.5694 52.3317 33.0261 52.5825 31.4827C52.8333 29.9393 53.0272 28.3841 53.1982 26.8172C53.3692 25.2503 53.4718 23.6715 53.5402 22.0928C53.5972 20.5023 53.6086 18.9118 53.5288 17.3095C53.3692 14.105 52.9701 10.8533 51.8757 7.60157C51.6021 6.78865 51.2714 5.97573 50.8724 5.17458C50.4734 4.37344 49.9831 3.58408 49.3675 2.81828C48.7405 2.06427 47.9994 1.31025 46.9391 0.732956C46.4147 0.4502 45.7991 0.214571 45.1036 0.108538C44.9326 0.0849749 44.7616 0.061409 44.5792 0.061409H44.4424H44.3398H44.146C43.8837 0.061409 43.6215 0.084972 43.3593 0.120317C42.8235 0.179224 42.2876 0.308818 41.7632 0.48554C41.2388 0.662263 40.7371 0.909674 40.2811 1.19243C39.3576 1.75794 38.6052 2.46484 37.9781 3.18351C37.3511 3.90218 36.8495 4.64441 36.3935 5.37486C35.9374 6.10532 35.5498 6.83577 35.1736 7.54266C34.4325 8.96823 33.7941 10.3584 33.1328 11.6898C32.8022 12.3495 32.4716 12.9975 32.1296 13.6337C31.9586 13.9518 31.7875 14.2581 31.6051 14.5644L31.3315 15.0121C31.2859 15.0946 31.2517 15.1417 31.2061 15.2006C31.1719 15.2595 31.1263 15.3185 31.0921 15.3774C30.7957 15.8251 30.4537 16.2021 30.1002 16.4966C29.7468 16.7911 29.3592 17.0032 28.926 17.1564C28.0595 17.4745 26.9308 17.498 25.6995 17.3331C24.4683 17.1564 23.1572 16.7911 21.8461 16.3317C20.5236 15.8722 19.1897 15.3067 17.8444 14.7412L15.8037 13.8575L15.2564 13.6219C15.0626 13.5394 14.8688 13.457 14.675 13.3863C14.2874 13.2331 13.8884 13.0918 13.4779 12.9504C12.6571 12.6794 11.7906 12.4673 10.8558 12.3613C9.9209 12.2553 8.91763 12.2553 7.88016 12.4909C6.85409 12.7147 5.81662 13.1978 4.96157 13.8693C4.10651 14.5409 3.45666 15.3538 2.95503 16.1903C2.70421 16.6026 2.48761 17.0268 2.30519 17.4509C2.11138 17.875 1.95176 18.2992 1.81496 18.7115C1.52994 19.548 1.32472 20.3845 1.15371 21.2092C0.811691 22.8586 0.663484 24.4845 0.572278 26.0868C0.492472 27.689 0.481069 29.2795 0.526672 30.8583C0.538073 31.2588 0.549476 31.6476 0.572278 32.0364C0.595079 32.437 0.606477 32.8376 0.640679 33.2499C0.697683 34.051 0.788892 34.864 0.9143 35.6651C1.15372 37.2674 1.51854 38.8579 2.03157 40.3895C2.4306 41.5794 4.85896 48.0121 12.144 53.5141C12.5773 53.7615 13.0447 53.9147 13.5235 53.9147Z" fill="#253D62"/>
</svg>
