<svg width="200" height="200" viewBox="0 0 200 200" fill="none" xmlns="http://www.w3.org/2000/svg">
<path d="M121.906 146.956H112.537C110.809 146.956 109.412 148.353 109.412 150.081C109.412 151.809 110.809 153.206 112.537 153.206H121.906C123.634 153.206 125.031 151.809 125.031 150.081C125.031 148.353 123.634 146.956 121.906 146.956ZM121.906 121.878H112.537C110.809 121.878 109.412 123.275 109.412 125.003C109.412 126.731 110.809 128.128 112.537 128.128H121.906C123.634 128.128 125.031 126.731 125.031 125.003C125.031 123.275 123.634 121.878 121.906 121.878ZM46.8656 153.206H78.1312C79.8594 153.206 81.2562 151.809 81.2562 150.081C81.2562 148.353 79.8594 146.956 78.1312 146.956H46.8656C45.1375 146.956 43.7406 148.353 43.7406 150.081C43.7406 151.809 45.1375 153.206 46.8656 153.206ZM121.906 159.456H112.537C110.809 159.456 109.412 160.853 109.412 162.581C109.412 164.309 110.809 165.706 112.537 165.706H121.906C123.634 165.706 125.031 164.309 125.031 162.581C125.031 160.853 123.634 159.456 121.906 159.456ZM46.8656 165.706H90.6469C92.375 165.706 93.7719 164.309 93.7719 162.581C93.7719 160.853 92.375 159.456 90.6469 159.456H46.8656C45.1375 159.456 43.7406 160.853 43.7406 162.581C43.7406 164.309 45.1375 165.706 46.8656 165.706ZM46.8656 128.128H71.875C73.6031 128.128 75 126.731 75 125.003C75 123.275 73.6031 121.878 71.875 121.878H46.8656C45.1375 121.878 43.7406 123.275 43.7406 125.003C43.7406 126.731 45.1375 128.128 46.8656 128.128ZM121.906 134.378H112.537C110.809 134.378 109.412 135.775 109.412 137.503C109.412 139.231 110.809 140.628 112.537 140.628H121.906C123.634 140.628 125.031 139.231 125.031 137.503C125.031 135.775 123.634 134.378 121.906 134.378ZM46.8656 140.628H84.3906C86.1187 140.628 87.5156 139.231 87.5156 137.503C87.5156 135.775 86.1187 134.378 84.3906 134.378H46.8656C45.1375 134.378 43.7406 135.775 43.7406 137.503C43.7406 139.231 45.1375 140.628 46.8656 140.628ZM46.8656 112.422H121.875C123.603 112.422 125 111.025 125 109.297C125 107.569 123.603 106.172 121.875 106.172H46.8656C45.1375 106.172 43.7406 107.569 43.7406 109.297C43.7406 111.025 45.1375 112.422 46.8656 112.422Z" fill="url(#paint0_linear_41_98)"/>
<path d="M153.138 0.00317383H40.6125C32.0469 0.00317383 25.0781 6.9438 25.0125 15.4938C25.0094 15.5375 24.9875 15.5719 24.9875 15.6157V162.481H15.6188C10.45 162.481 6.24377 166.688 6.24377 171.856V190.622C6.24377 195.791 10.45 199.997 15.6188 199.997H153.131C158.3 199.997 162.506 195.791 162.506 190.622V171.856C162.506 166.688 158.306 162.481 153.144 162.481H143.769V74.9907H178.144C186.753 74.9907 193.756 67.9875 193.756 59.3782V43.7469C193.756 43.3407 193.675 42.9344 193.516 42.5532C193.356 42.1688 193.128 41.8219 192.838 41.5344L186.591 35.2875C185.369 34.0657 183.394 34.0657 182.172 35.2875L178.125 39.3344L174.078 35.2875C172.856 34.0657 170.881 34.0657 169.659 35.2875L168.744 36.2032V15.6157C168.744 7.0063 161.744 0.00317383 153.138 0.00317383ZM40.6125 6.25317H140.716C138.738 8.8688 137.519 12.0907 137.519 15.6157V71.7751C137.519 71.8094 137.5 71.8344 137.5 71.8657C137.5 71.8969 137.519 71.925 137.519 71.9563V178.119H31.2375V15.6782C31.2375 15.6563 31.25 15.6375 31.25 15.6157C31.25 10.4532 35.45 6.25317 40.6125 6.25317ZM153.144 168.731C154.859 168.731 156.256 170.131 156.256 171.856V190.622C156.256 192.347 154.856 193.747 153.131 193.747H15.6188C13.8938 193.747 12.4938 192.347 12.4938 190.622V171.856C12.4938 170.131 13.8938 168.731 15.6188 168.731H24.9875V178.119H24.9813C23.2531 178.119 21.8563 179.516 21.8563 181.244C21.8563 182.972 23.2531 184.369 24.9813 184.369H143.775C145.503 184.369 146.9 182.972 146.9 181.244C146.9 179.516 145.503 178.119 143.775 178.119H143.769V168.731H153.144ZM143.769 15.6157C143.769 10.4532 147.972 6.25317 153.138 6.25317C158.297 6.25317 162.494 10.4532 162.494 15.6157V59.3782C162.494 59.5063 162.553 59.6157 162.566 59.7407C162.644 63.1251 163.816 66.2157 165.728 68.7407H143.769V15.6157ZM178.144 68.7407C172.981 68.7407 168.781 64.5407 168.781 59.3782C168.781 59.3125 168.747 59.2594 168.744 59.1938V45.0375L171.869 41.9157L175.909 45.9563C176.519 46.5657 177.319 46.8719 178.119 46.8719C178.522 46.8719 178.925 46.7938 179.303 46.6375C179.684 46.4844 180.044 46.2563 180.353 45.9469L184.381 41.9157L187.506 45.0407V59.3782C187.506 64.5407 183.306 68.7407 178.144 68.7407Z" fill="url(#paint1_linear_41_98)"/>
<path d="M59.3719 58.5156V87.5062C59.3719 89.2343 60.7688 90.6312 62.4969 90.6312H71.8719C77.0313 90.6312 81.225 86.4406 81.2438 81.2874C81.2438 81.2749 81.25 81.2687 81.25 81.2562V75.0062C81.25 73.2812 82.6501 71.8812 84.375 71.8812C86.1001 71.8812 87.5 73.2812 87.5 75.0062V81.2562C87.5 86.4249 91.7063 90.6312 96.875 90.6312H106.25C107.978 90.6312 109.375 89.2343 109.375 87.5062V58.525C115.184 54.4562 118.753 47.7812 118.753 40.6218C118.753 28.5624 108.938 18.7468 96.8782 18.7468C92.3876 18.7468 88.0375 20.1312 84.3782 22.6937C80.7188 20.1343 76.3688 18.7468 71.8782 18.7468C59.8188 18.7468 50.0032 28.5624 50.0032 40.6218C50.0032 47.7718 53.5688 54.4468 59.3719 58.5156ZM71.8782 24.9968C75.7157 24.9968 79.4126 26.4187 82.2907 29C83.4813 30.0687 85.2751 30.0687 86.4657 29C89.3438 26.4187 93.0407 24.9968 96.8782 24.9968C105.494 24.9968 112.503 32.0062 112.503 40.6218C112.503 46.1812 109.509 51.3687 104.688 54.1593C104.591 54.2187 104.534 54.3093 104.444 54.3718C104.247 54.5187 104.059 54.6687 103.897 54.8531C103.784 54.9906 103.7 55.1312 103.609 55.2843C103.497 55.4749 103.394 55.6593 103.322 55.8718C103.256 56.0656 103.234 56.2531 103.206 56.4562C103.191 56.5906 103.125 56.7125 103.125 56.8562V84.3812H96.875C95.1501 84.3812 93.75 82.9812 93.75 81.2562V75.0062C93.75 69.8375 89.5438 65.6312 84.375 65.6312C79.2063 65.6312 75 69.8375 75 75.0062V81.2406C75 81.2468 74.9969 81.25 74.9969 81.2562C74.9969 82.9812 73.5969 84.3812 71.8719 84.3812H65.6219V56.8562C65.6219 56.7218 65.5594 56.6093 65.5469 56.4781C65.5188 56.2625 65.4907 56.0562 65.4219 55.8531C65.3563 55.6562 65.2594 55.4906 65.1594 55.3156C65.0625 55.1437 64.9626 54.9875 64.8344 54.8343C64.6875 54.6656 64.5188 54.5343 64.3438 54.4031C64.2438 54.325 64.1751 54.2156 64.0626 54.1531C59.2469 51.3624 56.2532 46.1781 56.2532 40.6218C56.2532 32.0062 63.2625 24.9968 71.8782 24.9968Z" fill="url(#paint2_linear_41_98)"/>
<defs>
<linearGradient id="paint0_linear_41_98" x1="84.3859" y1="106.172" x2="84.3859" y2="165.706" gradientUnits="userSpaceOnUse">
<stop stop-color="#3E6DB4" stop-opacity="0.5"/>
<stop offset="1" stop-color="white"/>
</linearGradient>
<linearGradient id="paint1_linear_41_98" x1="100" y1="0.00317383" x2="100" y2="199.997" gradientUnits="userSpaceOnUse">
<stop stop-color="#3E6DB4"/>
<stop offset="1" stop-color="white"/>
</linearGradient>
<linearGradient id="paint2_linear_41_98" x1="84.3782" y1="18.7468" x2="84.3782" y2="90.6312" gradientUnits="userSpaceOnUse">
<stop stop-color="#3E6DB4"/>
<stop offset="1" stop-color="white"/>
</linearGradient>
</defs>
</svg>
