<svg width="200" height="200" viewBox="0 0 200 200" fill="none" xmlns="http://www.w3.org/2000/svg">
<g clip-path="url(#clip0_41_96)">
<path d="M80.3375 0.167719C77.077 0.0406849 73.8261 0.597691 70.7939 1.80289C67.7618 3.00809 65.0155 4.83478 62.7319 7.16541C60.4296 9.46907 58.6217 12.2185 57.419 15.2452C56.2164 18.2719 55.6442 21.5123 55.7375 24.7679C55.9185 31.4527 58.6632 37.8118 63.4032 42.5288C68.1433 47.2458 74.5158 49.9594 81.2014 50.1078V75.6243C79.3786 76.2663 77.7994 77.4569 76.6803 79.0324C75.5612 80.6079 74.9573 82.4912 74.9514 84.4237V190.674C74.9514 193.16 75.9391 195.545 77.6972 197.303C79.4554 199.061 81.84 200.049 84.3264 200.049C86.8128 200.049 89.1973 199.061 90.9555 197.303C92.7136 195.545 93.7014 193.16 93.7014 190.674V84.4237C93.6954 82.4912 93.0915 80.6079 91.9724 79.0324C90.8534 77.4569 89.2741 76.2663 87.4514 75.6243V49.3812C91.7151 48.3927 95.6208 46.2403 98.7337 43.1637C103.326 38.3853 105.837 31.9808 105.714 25.3544C105.592 18.728 102.847 12.4206 98.0807 7.81516C93.3813 3.0623 87.0196 0.320386 80.3375 0.167719ZM87.4511 190.674C87.4511 191.503 87.1219 192.298 86.5358 192.884C85.9498 193.47 85.1549 193.799 84.3261 193.799C83.4973 193.799 82.7025 193.47 82.1164 192.884C81.5303 192.298 81.2011 191.503 81.2011 190.674V112.549H87.4511V190.674ZM87.4511 106.299H81.2011V84.424C81.2011 83.5952 81.5303 82.8003 82.1164 82.2143C82.7025 81.6282 83.4973 81.299 84.3261 81.299C85.1549 81.299 85.9498 81.6282 86.5358 82.2143C87.1219 82.8003 87.4511 83.5952 87.4511 84.424V106.299ZM94.3145 38.745C90.7087 42.1665 85.8936 44.0191 80.9243 43.8967C75.955 43.7743 71.2369 41.6869 67.8039 38.0919C64.1953 34.5296 62.1101 29.7059 61.9875 24.6367C61.9112 22.2573 62.3168 19.8871 63.1799 17.6686C64.0431 15.45 65.3459 13.4289 67.0102 11.7267C68.6744 10.0246 70.6656 8.67655 72.8642 7.76366C75.0628 6.85077 77.4232 6.39188 79.8037 6.41459C79.9379 6.41459 80.0724 6.41459 80.2065 6.41766C85.276 6.53896 90.1002 8.62446 93.6617 12.2343C97.2559 15.6677 99.3428 20.3857 99.4652 25.3547C99.5876 30.3238 97.7354 35.1388 94.3145 38.745ZM137.451 75.6243V15.6737C137.451 15.2633 137.37 14.8569 137.213 14.4778C137.056 14.0987 136.826 13.7542 136.536 13.4642L124.036 0.964157C123.448 0.38794 122.656 0.0670441 121.833 0.071202C121.01 0.0753599 120.221 0.404235 119.639 0.986362C119.057 1.56849 118.728 2.35683 118.724 3.18007C118.72 4.00331 119.041 4.79493 119.617 5.38291L131.201 16.9674V75.6241C129.379 76.2662 127.799 77.4567 126.68 79.0322C125.561 80.6077 124.957 82.491 124.951 84.4235V190.673C124.951 193.16 125.939 195.544 127.697 197.303C129.455 199.061 131.84 200.048 134.326 200.048C136.813 200.048 139.197 199.061 140.956 197.303C142.714 195.544 143.701 193.16 143.701 190.673V84.4235C143.695 82.491 143.091 80.6077 141.972 79.0322C140.853 77.4568 139.274 76.2664 137.451 75.6243ZM137.451 190.674C137.451 191.503 137.122 192.297 136.536 192.883C135.95 193.469 135.155 193.799 134.326 193.799C133.497 193.799 132.703 193.469 132.116 192.883C131.53 192.297 131.201 191.503 131.201 190.674V112.549H137.451V190.674ZM137.451 106.299H131.201V84.4237C131.201 83.5949 131.53 82.8001 132.116 82.214C132.703 81.628 133.497 81.2987 134.326 81.2987C135.155 81.2987 135.95 81.628 136.536 82.214C137.122 82.8001 137.451 83.5949 137.451 84.4237V106.299ZM32.373 0.732282L16.748 13.2323C16.3823 13.5255 16.0871 13.8971 15.8843 14.3197C15.6815 14.7422 15.5762 15.205 15.5762 15.6737V43.7987C14.8012 43.7988 14.054 44.0867 13.4793 44.6066C12.9047 45.1265 12.5437 45.8414 12.4664 46.6125L6.71386 104.147C6.56661 105.617 6.57536 107.118 6.49111 108.606C6.39858 108.87 6.34311 109.145 6.3263 109.424C6.34533 109.591 6.37851 109.755 6.42548 109.917C6.35948 111.419 6.20117 112.91 6.20117 114.41V187.549C6.20117 190.864 7.51813 194.043 9.86234 196.387C12.2065 198.732 15.386 200.049 18.7012 200.049C22.0164 200.049 25.1958 198.732 27.54 196.387C29.8842 194.043 31.2012 190.864 31.2012 187.549V114.41C31.2012 112.784 31.0352 111.168 30.9578 109.541C30.9593 109.5 30.9814 109.465 30.9814 109.424C30.9814 109.355 30.9463 109.297 30.9421 109.229C30.8563 107.533 30.8563 105.824 30.6884 104.15L24.9359 46.6125C24.8586 45.8414 24.4976 45.1265 23.923 44.6066C23.3484 44.0867 22.6011 43.7988 21.8262 43.7987V17.175L36.2793 5.61509C36.5999 5.35861 36.8669 5.04148 37.0649 4.68182C37.263 4.32217 37.3882 3.92702 37.4336 3.51895C37.4789 3.11088 37.4434 2.69788 37.3292 2.30352C37.2149 1.90916 37.0241 1.54117 36.7676 1.22056C36.5111 0.899953 36.194 0.633001 35.8343 0.43495C35.4747 0.236899 35.0795 0.111626 34.6714 0.066285C34.2634 0.0209439 33.8504 0.0564221 33.456 0.170694C33.0616 0.284966 32.6937 0.475793 32.373 0.732282ZM24.9512 187.549C24.9512 189.206 24.2927 190.796 23.1206 191.968C21.9485 193.14 20.3588 193.799 18.7012 193.799C17.0436 193.799 15.4539 193.14 14.2818 191.968C13.1097 190.796 12.4512 189.206 12.4512 187.549V168.799H24.9512V187.549ZM24.9512 114.41V162.549H12.4512V114.41C12.4512 113.789 12.5324 113.171 12.5442 112.549H24.858C24.8699 113.172 24.9512 113.789 24.9512 114.41ZM24.4687 104.776C24.5195 105.277 24.5023 105.794 24.545 106.299H12.857C12.8998 105.793 12.8826 105.276 12.9334 104.773L18.4052 50.0487H18.9972L24.4687 104.776ZM193.045 44.9858L155.35 1.04047C154.864 0.473312 154.19 0.0992981 153.451 -0.0137278C152.713 -0.126754 151.958 0.0286945 151.324 0.424419C150.69 0.820144 150.219 1.42993 149.997 2.14318C149.774 2.85642 149.814 3.62588 150.11 4.31197L168.799 47.6652L168.759 109.139C168.75 109.237 168.701 109.323 168.701 109.424C168.701 109.525 168.749 109.609 168.758 109.707L168.707 187.54C168.705 190.855 170.019 194.035 172.362 196.381C174.704 198.727 177.883 200.046 181.198 200.049C184.513 200.051 187.694 198.736 190.04 196.394C192.386 194.052 193.705 190.873 193.707 187.558L193.799 47.0244C193.8 46.2765 193.532 45.5532 193.045 44.9858ZM187.458 187.552C187.457 189.209 186.797 190.799 185.625 191.97C184.452 193.142 182.862 193.799 181.204 193.799C179.547 193.798 177.957 193.138 176.786 191.966C175.614 190.793 174.957 189.203 174.958 187.545L175.006 112.549H187.506L187.458 187.552ZM187.511 106.299H175.01L175.049 47.0243C175.05 46.5981 174.963 46.1762 174.793 45.7853L163.98 20.6999L187.549 48.1779L187.511 106.299Z" fill="url(#paint0_linear_41_96)"/>
</g>
<defs>
<linearGradient id="paint0_linear_41_96" x1="100" y1="-0.0496826" x2="100" y2="200.049" gradientUnits="userSpaceOnUse">
<stop stop-color="#3E6DB4"/>
<stop offset="1" stop-color="white"/>
</linearGradient>
<clipPath id="clip0_41_96">
<rect width="200" height="200" fill="white"/>
</clipPath>
</defs>
</svg>
