<svg width="200" height="200" viewBox="0 0 200 200" fill="none" xmlns="http://www.w3.org/2000/svg">
<path d="M132.287 52.9875C130.63 52.9875 129.04 53.646 127.868 54.8181C126.696 55.9902 126.037 57.5799 126.037 59.2375C126.037 60.8951 126.696 62.4848 127.868 63.6569C129.04 64.829 130.63 65.4875 132.287 65.4875C135.312 65.4875 137.812 66.3875 139.625 67.9875C141.4 69.575 143.062 72.325 143.537 77.0875C143.62 77.9042 143.862 78.6967 144.25 79.4198C144.638 80.1428 145.165 80.7824 145.801 81.3018C146.436 81.8212 147.168 82.2104 147.954 82.4471C148.74 82.6838 149.565 82.7634 150.381 82.6813C151.198 82.5992 151.99 82.3571 152.713 81.9687C153.437 81.5804 154.076 81.0534 154.596 80.4179C155.115 79.7824 155.504 79.0508 155.741 78.2649C155.977 77.479 156.057 76.6542 155.975 75.8375C155.25 68.55 152.45 62.6875 147.938 58.6625C143.6 54.9041 138.026 52.8828 132.287 52.9875ZM88.8375 34.9625C84.3738 31.2428 79.1308 28.5745 73.4965 27.1551C67.8621 25.7357 61.9807 25.6015 56.2875 26.7625C46.0625 28.7625 37.0375 34.4125 31.05 40.8875L31.025 40.925C24.4875 48.1 17.8 57.425 17.225 71.0125V71.0375C16.975 77.7125 17.925 87.45 23.1875 94.9L23.2625 94.9875C28.8375 102.55 31.95 106.975 33.5125 111.25C35.3 116.15 35.3 121.1 35.3 128.463V129.063C35.3625 136.188 36.875 146.025 40.5125 154.975C44.1125 163.8 50.3 172.975 60.5 176.688L60.75 176.775L61.025 176.85C66.9375 178.425 72.6 177.9 76.9 173.888C80.65 170.388 82.15 165.213 83 160.725C83.775 156.588 84.1625 151.775 84.55 147.1L84.6875 145.338C85.1375 139.938 85.65 134.588 86.7 129.563V129.525C89.5375 115.738 93.6 113.575 95.1625 113.088C99.7875 111.9 102.562 112.525 104.363 113.55C106.312 114.663 108.113 116.8 109.675 120.325C112.9 127.638 113.85 138 114.725 147.6C115.475 157.138 117.475 165.913 121.4 171.6C123.462 174.588 126.425 177.238 130.475 178.1C134.562 178.988 138.5 177.775 141.912 175.6C154.337 167.663 161.462 151.275 163.337 129.913C164.212 119.775 165.238 115.25 166.75 111.6C167.525 109.725 168.5 107.925 169.875 105.563L171.2 103.313C172.333 101.438 173.625 99.2125 175.075 96.6375L175.1 96.625C177.8 91.775 182.25 82.9 182.762 72.5C183.3 61.65 179.512 49.7125 166.825 39.4375C154.75 29.6375 143.425 26.025 133.237 26.5625C123.15 27.0875 115.088 31.6375 109.325 36.5L109.125 36.675L108.95 36.85C103.475 42.325 101.162 43.0375 99.9125 42.975C98.3875 42.9125 95.5625 41.6875 89.3625 35.425L89.1125 35.175L88.8375 34.9625ZM29.7125 71.5375C30.1125 62.25 34.5 55.6625 40.25 49.3625C44.625 44.6375 51.325 40.475 58.675 39.0375C62.5277 38.2329 66.5121 38.3049 70.3332 39.2483C74.1543 40.1917 77.7144 41.9823 80.75 44.4875C86.625 50.4 92.525 55.175 99.375 55.475C106.5 55.775 112.275 51.175 117.587 45.8875C121.925 42.2625 127.412 39.3875 133.887 39.0375C140.363 38.7 148.737 40.8625 158.95 49.1375C168.437 56.825 170.625 64.8875 170.275 71.8875C169.912 79.3 166.65 86.0875 164.188 90.5125C162.535 93.459 160.83 96.3761 159.075 99.2625C157.625 101.763 156.312 104.138 155.2 106.813C152.95 112.263 151.8 118.338 150.875 128.813C149.137 148.65 142.762 160.225 135.187 165.063C134.671 165.407 134.107 165.672 133.512 165.85C133.225 165.913 133.112 165.888 133.1 165.888C133.087 165.888 132.975 165.863 132.75 165.7C132.334 165.36 131.975 164.955 131.687 164.5C129.687 161.625 127.887 155.6 127.188 146.588V146.513L127.1 145.575C126.3 136.7 125.2 124.55 121.112 115.288C118.95 110.375 115.675 105.6 110.538 102.675C105.263 99.675 98.9625 99.175 91.9125 101.025L91.8125 101.05L91.725 101.075C83.35 103.513 77.625 111.625 74.475 127.013C73.2375 132.875 72.675 138.913 72.225 144.3L72.1 146.05C71.8434 150.196 71.3803 154.326 70.7125 158.425C69.9625 162.475 69 164.15 68.35 164.75C68.2125 164.875 67.525 165.588 64.5125 164.85C59.2875 162.825 55.075 157.588 52.1 150.263C49.4354 143.472 47.9801 136.267 47.8 128.975V127.675C47.8 121.025 47.825 114.013 45.25 106.975C42.9625 100.675 38.6125 94.7375 33.3625 87.625C30.4625 83.5 29.4875 77.125 29.7125 71.5375Z" fill="url(#paint0_linear_41_85)"/>
<defs>
<linearGradient id="paint0_linear_41_85" x1="100" y1="25.9811" x2="100" y2="178.393" gradientUnits="userSpaceOnUse">
<stop stop-color="#3E6DB4"/>
<stop offset="1" stop-color="white"/>
</linearGradient>
</defs>
</svg>
