<svg width="50" height="50" viewBox="0 0 50 50" fill="none" xmlns="http://www.w3.org/2000/svg">
<path d="M4.32849 37.2798C6.50756 37.2798 7.9751 38.3787 8.44945 40.2821H6.06285C5.81085 39.5639 5.22532 39.1042 4.30625 39.1042C3.0759 39.1042 2.25318 40.0092 2.25318 41.6612C2.25318 43.3132 3.0759 44.2039 4.30625 44.2039C5.22532 44.2039 5.78861 43.8088 6.06285 43.0403H8.44945C7.9751 44.8431 6.50756 46.0427 4.32849 46.0427C1.80106 46.0427 0 44.326 0 41.6612C0 38.9964 1.80106 37.2798 4.32849 37.2798Z" fill="white"/>
<path d="M10.0802 34.5713H12.2889V45.8984H10.0802V34.5713Z" fill="white"/>
<path d="M14.2382 35.1539C14.2382 34.45 14.8089 33.897 15.5945 33.897C16.3653 33.897 16.9509 34.45 16.9509 35.1539C16.9509 35.8578 16.3653 36.4109 15.5945 36.4109C14.8015 36.4109 14.2382 35.8578 14.2382 35.1539ZM14.4753 37.4165H16.6841V45.8992H14.4753V37.4165Z" fill="white"/>
<path d="M24.9926 41.2157C24.9926 39.851 24.2218 39.1183 23.0507 39.1183C21.85 39.1183 21.0792 39.851 21.0792 41.2157V45.8988H18.8705V37.4161H21.0718V38.4719C21.6425 37.7536 22.5912 37.2939 23.7104 37.2939C25.7486 37.2939 27.2013 38.5796 27.2013 40.9212V45.8988H24.9926V41.2157Z" fill="white"/>
<path d="M29.0691 35.1539C29.0691 34.45 29.6398 33.897 30.4254 33.897C31.1963 33.897 31.7818 34.45 31.7818 35.1539C31.7818 35.8578 31.1963 36.4109 30.4254 36.4109C29.6398 36.4109 29.0691 35.8578 29.0691 35.1539ZM29.3063 37.4165H31.515V45.8992H29.3063V37.4165Z" fill="white"/>
<path d="M37.4519 37.2798C39.631 37.2798 41.0985 38.3787 41.5729 40.2821H39.1863C38.9343 39.5639 38.3487 39.1042 37.4297 39.1042C36.1993 39.1042 35.3766 40.0092 35.3766 41.6612C35.3766 43.3132 36.1993 44.2039 37.4297 44.2039C38.3487 44.2039 38.912 43.8088 39.1863 43.0403H41.5729C41.0985 44.8431 39.631 46.0427 37.4519 46.0427C34.9245 46.0427 33.1234 44.326 33.1234 41.6612C33.1308 38.9964 34.9319 37.2798 37.4519 37.2798Z" fill="white"/>
<path d="M46.5536 46.0351C44.3597 46.0351 42.8255 44.7925 42.7291 43.2195H44.9601C45.0416 43.866 45.6568 44.3544 46.5388 44.3544C47.406 44.3544 47.8803 43.9737 47.8803 43.4853C47.8803 41.9697 42.9367 42.9322 42.9367 39.8293C42.9367 38.4215 44.2337 37.2866 46.398 37.2866C48.5177 37.2866 49.7926 38.4071 49.9186 40.0879H47.7988C47.7321 39.4271 47.1984 38.9889 46.3313 38.9889C45.5086 38.9889 45.0861 39.3121 45.0861 39.8006C45.0861 41.3448 49.9334 40.3824 50.0001 43.4925C50.0001 44.9362 48.6882 46.0351 46.5536 46.0351Z" fill="white"/>
<path d="M8.63483 48.5278C8.64965 49.2317 8.20495 49.9356 7.20435 49.9356H6.07776V47.1631H7.20435C8.18271 47.1631 8.62001 47.8383 8.63483 48.5278ZM7.19694 49.4328C7.84918 49.4328 8.10118 48.9731 8.09377 48.5206C8.07895 48.0897 7.81953 47.6587 7.19694 47.6587H6.61141V49.4328H7.19694Z" fill="white"/>
<path d="M9.96143 49.9356V47.1631H12.1034V47.6731H10.4951V48.3123H12.0441V48.8007H10.4951V49.4256H12.1034V49.9428H9.96143V49.9356Z" fill="white"/>
<path d="M16.0096 47.1558V49.9355H15.676V49.9426L14.1714 48.068V49.9355H13.6304V47.1629H14.0677L15.4685 48.8796V47.1558H16.0096Z" fill="white"/>
<path d="M17.314 47.6371V47.1631H19.6709V47.6371H18.7667V49.9356H18.2256V47.6371H17.314Z" fill="white"/>
<path d="M21.5165 49.4113L21.2719 49.9356H20.6864L21.9686 47.1631H22.5542L23.8364 49.9356H23.2509L23.0063 49.4113H21.5165ZM21.7315 48.9228H22.7914L22.2577 47.7449L21.7315 48.9228Z" fill="white"/>
<path d="M25.6449 49.4544H27.1198V49.9356H25.1112V47.1631H25.6523V49.4544H25.6449Z" fill="white"/>
<path d="M31.7225 50.0001C30.6626 50.0001 30.2105 49.289 30.2031 48.5707C30.1957 47.8453 30.6849 47.1055 31.7225 47.1055C32.1079 47.1055 32.4785 47.2491 32.775 47.5292L32.4118 47.8668C32.2265 47.6873 31.9671 47.6083 31.7225 47.6083C31.0332 47.6083 30.7367 48.111 30.7367 48.5707C30.7442 49.0304 31.0184 49.5117 31.7225 49.5117C31.9745 49.5117 32.2562 49.4111 32.4415 49.2315L32.812 49.5907C32.5156 49.8708 32.1376 50.0001 31.7225 50.0001Z" fill="white"/>
<path d="M34.502 49.4113L34.2574 49.9356H33.6719L34.9541 47.1631H35.5396L36.8219 49.9356H36.2364L35.9918 49.4113H34.502ZM34.7169 48.9228H35.7768L35.2432 47.7449L34.7169 48.9228Z" fill="white"/>
<path d="M39.9497 49.9355L39.1121 49.0089H38.5933V49.9355H38.0522V47.1558C38.5044 47.1558 38.9565 47.1629 39.416 47.1629C40.0905 47.1701 40.4463 47.6011 40.4463 48.0823C40.4463 48.463 40.2684 48.8437 39.7199 48.9514L40.5871 49.8995V49.9355H39.9497ZM38.5933 48.5348H39.416C39.757 48.5348 39.9052 48.3122 39.9052 48.0895C39.9052 47.8668 39.757 47.6442 39.416 47.6442H38.5933V48.5348Z" fill="white"/>
<path d="M41.7804 49.9356V47.1631H43.9224V47.6731H42.314V48.3123H43.8631V48.8007H42.314V49.4256H43.9224V49.9428H41.7804V49.9356Z" fill="white"/>
<path d="M37.3258 20.4506C37.0738 19.9263 37.1405 19.3373 37.222 18.8704C37.2295 18.813 37.2443 18.7483 37.2517 18.7052C37.2591 18.6549 37.2739 18.5975 37.2962 18.5472C37.3258 18.4395 37.3703 18.3317 37.4222 18.224C37.5185 18.0085 37.6593 17.7786 37.8298 17.5488C38.1633 17.0963 38.6229 16.6438 39.1195 16.2056C40.1201 15.3222 41.2837 14.4603 42.5141 13.6414C50.6893 8.21851 49.0216 4.05974 48.8734 3.5785C48.7252 3.10444 46.5906 -3.43179 32.9603 2.42209C32.5081 2.61602 32.0782 2.85305 31.6484 3.07571L31.5817 4.50506C32.2413 4.26803 32.901 4.03819 33.5606 3.82271C34.2573 3.60005 34.9763 3.44203 35.6582 3.19781C39.5493 1.83311 43.5369 1.77564 45.086 3.42048C46.5238 4.95039 45.879 8.02457 40.6315 11.149C39.9941 11.5297 39.4233 12.011 38.8082 12.4706C38.193 12.9303 37.5852 13.4116 36.9774 13.9503C36.3771 14.4962 35.7916 15.0995 35.2727 15.8321C35.0133 16.1985 34.7762 16.6007 34.5834 17.0532C34.4871 17.2759 34.4056 17.5129 34.3389 17.7571C34.3018 17.8792 34.2721 18.0013 34.2499 18.1306C34.2203 18.2599 34.2054 18.3748 34.1906 18.4969C34.0794 19.4666 34.2203 20.386 34.4723 21.212C34.7243 22.0452 35.0949 22.7993 35.5173 23.4961C35.7323 23.8408 35.9546 24.1784 36.1918 24.5016C36.429 24.8248 36.6736 25.1409 36.933 25.4426C37.4518 26.0459 38.0003 26.6061 38.571 27.1305C38.86 27.3962 39.1491 27.6476 39.453 27.899C39.7569 28.1432 40.0608 28.3875 40.3721 28.6173C40.9946 29.077 41.6321 29.5223 42.2917 29.9174C42.9514 30.3196 43.6258 30.6931 44.3151 31.0379C45.0044 31.3754 45.7085 31.6915 46.4201 31.9716C47.0353 32.2086 48.525 32.6755 49.0883 32.8407C49.2143 32.8766 49.3477 32.8766 49.4737 32.8479C49.7628 32.7761 49.7702 32.381 49.4886 32.2948C47.1835 31.6053 41.6617 29.4074 37.3258 20.4506Z" fill="white"/>
<path d="M8.75329 32.8696C9.02012 32.8696 9.1387 32.5536 8.93859 32.3812C4.51374 28.6534 3.22409 25.5217 2.89797 24.1427C2.69785 23.2736 2.56444 22.3901 2.51997 21.4994C2.49773 21.0541 2.48291 20.6088 2.49032 20.1635C2.49032 19.9408 2.49773 19.7181 2.50514 19.4955C2.51997 19.2656 2.52738 19.0358 2.5422 18.8059C2.6015 17.8865 2.67562 16.9815 2.79421 16.0837C2.9128 15.193 3.08327 14.3168 3.31303 13.4908C3.5428 12.6719 3.86151 11.8962 4.27657 11.3359C4.4841 11.0558 4.70645 10.8403 4.9288 10.6895C5.15857 10.5387 5.39575 10.4525 5.67739 10.4094C6.23328 10.3232 6.98929 10.4525 7.76011 10.7182C7.95282 10.7829 8.14552 10.8547 8.34564 10.9409C8.442 10.984 8.54576 11.0271 8.64211 11.0702L8.95341 11.2138L10.2875 11.81C11.1844 12.2122 12.1108 12.5929 13.0818 12.9305C14.0527 13.2681 15.0681 13.5769 16.1873 13.7493C16.7506 13.8355 17.3362 13.8786 17.9513 13.8571C18.5665 13.8355 19.2113 13.7421 19.8413 13.5338C20.4788 13.3327 21.0939 13.0095 21.6202 12.6073C22.1538 12.2051 22.5985 11.731 22.9543 11.2354C22.9988 11.1707 23.0432 11.1133 23.0877 11.0486C23.1322 10.984 23.1767 10.9194 23.2063 10.8691L23.4138 10.5459C23.5472 10.3304 23.6732 10.1077 23.7992 9.89223C24.0512 9.45409 24.281 9.02312 24.5108 8.59216C24.9629 7.73024 25.378 6.88269 25.8004 6.08541C26.2155 5.29532 26.6528 4.5555 27.1271 4.02398C27.3643 3.75822 27.6015 3.54993 27.8313 3.41346C28.061 3.2698 28.2908 3.19079 28.5576 3.1477C28.6243 3.14051 28.6985 3.13333 28.7652 3.12615H28.817C28.8244 3.12615 28.8393 3.12615 28.8393 3.12615C28.8467 3.12615 28.8467 3.12615 28.8615 3.12615C28.8912 3.12615 28.9579 3.13333 29.0468 3.17643C29.2247 3.24826 29.4693 3.435 29.699 3.67922C29.8102 3.80132 29.9288 3.94498 30.0326 4.08863C30.1363 4.23947 30.2475 4.39748 30.3439 4.56987C30.544 4.90745 30.7293 5.27377 30.8923 5.65445C31.2185 6.423 31.4631 7.25619 31.6632 8.11093C31.8633 8.96567 32.0041 9.84913 32.1079 10.747C32.2042 11.6448 32.2783 12.5498 32.308 13.4548C32.3451 14.367 32.3376 15.2864 32.3228 16.2058C32.308 17.1252 32.2561 18.0446 32.1968 18.9711C32.1375 19.8977 32.0486 20.8171 31.9522 21.7436C31.4112 25.6726 30.5662 29.6518 29.8843 32.611C29.8547 32.7403 29.9584 32.8624 30.0919 32.8624C30.3142 32.8624 30.5143 32.726 30.5885 32.5177C31.5891 29.6877 32.7601 25.9599 33.5976 22.0022C33.8052 21.0757 33.9831 20.1347 34.1461 19.1938C34.3092 18.2529 34.4352 17.3048 34.5464 16.3495C34.6575 15.3942 34.7242 14.4317 34.7687 13.4692C34.8058 12.4995 34.8132 11.5299 34.7613 10.553C34.6575 8.59935 34.3981 6.61693 33.6866 4.63451C33.5087 4.13891 33.2938 3.6433 33.0344 3.15488C32.7749 2.66646 32.4562 2.18522 32.056 1.71835C31.6483 1.25865 31.1666 0.798962 30.4773 0.447011C30.1363 0.274627 29.7361 0.130974 29.284 0.0663301C29.1728 0.0519648 29.0616 0.0375977 28.943 0.0375977H28.8541H28.7874H28.6614C28.4909 0.0375977 28.3204 0.051963 28.15 0.073511C27.8016 0.109424 27.4533 0.188432 27.1123 0.296172C26.7714 0.403912 26.4453 0.554749 26.1488 0.727133C25.5484 1.0719 25.0593 1.50286 24.6516 1.94101C24.244 2.37915 23.9178 2.83166 23.6214 3.27698C23.3249 3.72231 23.0729 4.16764 22.8283 4.5986C22.3465 5.4677 21.9315 6.31526 21.5016 7.1269C21.2866 7.52913 21.0717 7.92418 20.8493 8.31204C20.7382 8.50597 20.627 8.69272 20.5084 8.87947L20.3305 9.15242C20.3009 9.2027 20.2786 9.23142 20.249 9.26734C20.2268 9.30325 20.1971 9.33916 20.1749 9.37508C19.9822 9.64802 19.7598 9.87786 19.5301 10.0574C19.3003 10.237 19.0483 10.3663 18.7666 10.4597C18.2033 10.6536 17.4696 10.668 16.6691 10.5674C15.8686 10.4597 15.0163 10.237 14.1639 9.95687C13.3041 9.67675 12.437 9.33198 11.5624 8.98721L10.2357 8.44851L9.87989 8.30486C9.75389 8.25458 9.62789 8.2043 9.50189 8.1612C9.24988 8.06783 8.99047 7.98164 8.72365 7.89545C8.19 7.73025 7.6267 7.60096 7.01893 7.53631C6.41116 7.47167 5.75892 7.47167 5.08445 7.61532C4.41739 7.75179 3.74292 8.04628 3.18703 8.4557C2.63115 8.86511 2.20867 9.36071 1.88255 9.87068C1.71949 10.1221 1.57867 10.3807 1.46008 10.6392C1.33408 10.8978 1.23031 11.1564 1.14137 11.4078C0.956076 11.9177 0.822665 12.4277 0.711488 12.9305C0.489134 13.9361 0.392782 14.9273 0.333488 15.9041C0.281605 16.881 0.274192 17.8506 0.303839 18.8131C0.311251 19.0573 0.318664 19.2944 0.333488 19.5314C0.348311 19.7756 0.355721 20.0198 0.377957 20.2712C0.415016 20.7596 0.474312 21.2552 0.555842 21.7436C0.71149 22.7205 0.948666 23.6902 1.2822 24.6239C1.54161 25.3493 3.12032 29.2711 7.85647 32.6254C8.13811 32.7762 8.442 32.8696 8.75329 32.8696Z" fill="white"/>
</svg>
